<svg width="16" height="16" viewBox="0 0 16 16" fill="none" xmlns="http://www.w3.org/2000/svg">
<path fill-rule="evenodd" clip-rule="evenodd" d="M10.1469 4.64592C10.1933 4.59935 10.2485 4.56241 10.3093 4.5372C10.37 4.512 10.4351 4.49902 10.5009 4.49902C10.5667 4.49902 10.6318 4.512 10.6925 4.5372C10.7533 4.56241 10.8084 4.59935 10.8549 4.64592L13.8549 7.64592C13.9015 7.69236 13.9384 7.74754 13.9636 7.80828C13.9888 7.86903 14.0018 7.93415 14.0018 7.99992C14.0018 8.06568 13.9888 8.13081 13.9636 8.19155C13.9384 8.2523 13.9015 8.30747 13.8549 8.35392L10.8549 11.3539C10.761 11.4478 10.6337 11.5005 10.5009 11.5005C10.3681 11.5005 10.2408 11.4478 10.1469 11.3539C10.053 11.26 10.0003 11.1327 10.0003 10.9999C10.0003 10.8671 10.053 10.7398 10.1469 10.6459L12.7939 7.99992L10.1469 5.35392C10.1003 5.30747 10.0634 5.2523 10.0382 5.19155C10.013 5.13081 10 5.06568 10 4.99992C10 4.93415 10.013 4.86903 10.0382 4.80828C10.0634 4.74754 10.1003 4.69236 10.1469 4.64592Z" fill="black"/>
<path fill-rule="evenodd" clip-rule="evenodd" d="M2 8C2 7.86739 2.05268 7.74021 2.14645 7.64645C2.24021 7.55268 2.36739 7.5 2.5 7.5H13C13.1326 7.5 13.2598 7.55268 13.3536 7.64645C13.4473 7.74021 13.5 7.86739 13.5 8C13.5 8.13261 13.4473 8.25979 13.3536 8.35355C13.2598 8.44732 13.1326 8.5 13 8.5H2.5C2.36739 8.5 2.24021 8.44732 2.14645 8.35355C2.05268 8.25979 2 8.13261 2 8Z" fill="black"/>
</svg>
