<svg width="10" height="10" viewBox="0 0 10 10" fill="none" xmlns="http://www.w3.org/2000/svg">
<path d="M8.53637 7.1416L6.84262 5.6016C6.76256 5.52883 6.65735 5.49002 6.5492 5.49337C6.44106 5.49671 6.33845 5.54194 6.26304 5.61952L5.26595 6.64494C5.02595 6.5991 4.54345 6.44869 4.04678 5.95327C3.55012 5.45619 3.3997 4.97244 3.35512 4.7341L4.3797 3.7366C4.45737 3.66124 4.50268 3.55861 4.50602 3.45044C4.50936 3.34227 4.47049 3.23704 4.39762 3.15702L2.85803 1.46369C2.78514 1.38342 2.68382 1.33473 2.5756 1.32796C2.46738 1.32119 2.36078 1.35688 2.27845 1.42744L1.37428 2.20285C1.30225 2.27515 1.25925 2.37137 1.25345 2.47327C1.2472 2.57744 1.12803 5.04494 3.04137 6.9591C4.71054 8.62785 6.80137 8.74994 7.3772 8.74994C7.46137 8.74994 7.51304 8.74744 7.52679 8.7466C7.62867 8.7409 7.72484 8.69771 7.79679 8.62535L8.57179 7.72077C8.64262 7.6387 8.67857 7.53219 8.67195 7.42398C8.66534 7.31577 8.61668 7.21443 8.53637 7.1416Z" fill="white"/>
</svg>
