<svg width="12" height="12" viewBox="0 0 12 12" fill="none" xmlns="http://www.w3.org/2000/svg">
<path d="M10.393 4.14848L7.68944 3.75747L6.48108 1.32699C6.26458 0.893762 5.63727 0.888254 5.41892 1.32699L4.21056 3.75747L1.50704 4.14848C1.02221 4.21823 0.827916 4.81117 1.1795 5.15077L3.13544 7.04156L2.67283 9.71251C2.58956 10.1953 3.10214 10.5569 3.53144 10.3311L5.95 9.07002L8.36856 10.3311C8.79786 10.5551 9.31044 10.1953 9.22717 9.71251L8.76456 7.04156L10.7205 5.15077C11.0721 4.81117 10.8778 4.21823 10.393 4.14848ZM7.81157 6.73316L8.25013 9.27378L5.95 8.07506L3.64987 9.27378L4.08843 6.73316L2.22687 4.93416L4.79901 4.56335L5.95 2.25035L7.10099 4.56335L9.67313 4.93416L7.81157 6.73316Z" fill="#FFD168"/>
</svg>
