<svg width="14" height="14" viewBox="0 0 14 14" fill="none" xmlns="http://www.w3.org/2000/svg">
<path d="M5.28267 11.1911L1.38346 7.31373C1.36097 7.29137 1.34312 7.26478 1.33095 7.2355C1.31877 7.20622 1.3125 7.17482 1.3125 7.1431C1.3125 7.11139 1.31877 7.07999 1.33095 7.05071C1.34312 7.02143 1.36097 6.99484 1.38346 6.97248L2.36783 5.98701C2.46189 5.89295 2.61392 5.89295 2.70799 5.98701L5.27502 8.53873C5.36908 8.63279 5.52221 8.6317 5.61627 8.53764L11.2885 2.81076C11.3825 2.71561 11.5356 2.71561 11.6308 2.80967L12.6163 3.79514C12.7103 3.8892 12.7103 4.04123 12.6174 4.13529L6.43767 10.3708L6.43877 10.3719L5.62392 11.1911C5.52986 11.2851 5.37674 11.2851 5.28267 11.1911Z" fill="#585757"/>
</svg>
