<svg width="40" height="40" viewBox="0 0 40 40" fill="none" xmlns="http://www.w3.org/2000/svg">
<path d="M25.875 19.3523C25.875 23.8068 19.875 27.625 19.875 27.625C19.875 27.625 13.875 23.8068 13.875 19.3523C13.875 17.8333 14.5071 16.3766 15.6324 15.3025C16.7576 14.2284 18.2837 13.625 19.875 13.625C21.4663 13.625 22.9924 14.2284 24.1176 15.3025C25.2429 16.3766 25.875 17.8333 25.875 19.3523Z" stroke="black" stroke-width="1.33333" stroke-linecap="round" stroke-linejoin="round"/>
<path d="M19.875 21.2615C20.9796 21.2615 21.875 20.4068 21.875 19.3524C21.875 18.2981 20.9796 17.4434 19.875 17.4434C18.7704 17.4434 17.875 18.2981 17.875 19.3524C17.875 20.4068 18.7704 21.2615 19.875 21.2615Z" stroke="black" stroke-width="1.33333" stroke-linecap="round" stroke-linejoin="round"/>
</svg>
