<svg width="12" height="13" viewBox="0 0 12 13" fill="none" xmlns="http://www.w3.org/2000/svg">
<path d="M3 5H9.969L10.219 4H4V3H10.86C10.936 3 11.011 3.01733 11.0793 3.05067C11.1476 3.08401 11.2074 3.13248 11.2542 3.19239C11.3009 3.25231 11.3334 3.3221 11.3491 3.39645C11.3649 3.47081 11.3635 3.54778 11.345 3.6215L10.095 8.6215C10.0679 8.72962 10.0055 8.8256 9.9176 8.89417C9.82973 8.96275 9.72146 9 9.61 9H2.5C2.36739 9 2.24021 8.94732 2.14645 8.85355C2.05268 8.75978 2 8.63261 2 8.5V2.5H1V1.5H2.5C2.63261 1.5 2.75978 1.55268 2.85355 1.64645C2.94732 1.74021 3 1.86739 3 2V5ZM3 12C2.73478 12 2.48043 11.8946 2.29289 11.7071C2.10536 11.5196 2 11.2652 2 11C2 10.7348 2.10536 10.4804 2.29289 10.2929C2.48043 10.1054 2.73478 10 3 10C3.26522 10 3.51957 10.1054 3.70711 10.2929C3.89464 10.4804 4 10.7348 4 11C4 11.2652 3.89464 11.5196 3.70711 11.7071C3.51957 11.8946 3.26522 12 3 12ZM9 12C8.73478 12 8.48043 11.8946 8.29289 11.7071C8.10536 11.5196 8 11.2652 8 11C8 10.7348 8.10536 10.4804 8.29289 10.2929C8.48043 10.1054 8.73478 10 9 10C9.26522 10 9.51957 10.1054 9.70711 10.2929C9.89464 10.4804 10 10.7348 10 11C10 11.2652 9.89464 11.5196 9.70711 11.7071C9.51957 11.8946 9.26522 12 9 12Z" fill="white"/>
</svg>
